<svg width="159" height="54" viewBox="0 0 159 54" fill="none" xmlns="http://www.w3.org/2000/svg">
<path d="M155.957 50.307C154.175 52.0866 151.603 53.1201 148.897 53.1201H9.92624C7.22031 53.1201 4.64839 52.0867 2.86694 50.3072C1.33463 48.7731 0.5 46.806 0.5 44.7702V8.84993C0.5 4.29937 4.67321 0.5 9.92624 0.5H148.897C151.603 0.5 154.175 1.53274 155.957 3.31408C157.489 4.84614 158.323 6.81311 158.323 8.84993V44.7702C158.323 46.8068 157.489 48.773 155.957 50.307Z" stroke="black"/>
<path d="M156.616 44.4817H156.615V44.9817C156.615 48.6426 153.169 51.7357 148.783 51.7357H9.81248C7.52493 51.7357 5.36477 50.8718 3.88183 49.3898C2.64925 48.1564 1.98218 46.5902 1.98218 44.9808V9.06231C1.98218 7.45287 2.64926 5.88671 3.88171 4.65427C5.36462 3.17135 7.52483 2.3074 9.81248 2.3074H148.784C151.072 2.3074 153.232 3.17134 154.716 4.65437C155.948 5.88694 156.616 7.45311 156.616 9.06231V44.4817Z" stroke="black"/>
<path fill-rule="evenodd" clip-rule="evenodd" d="M56.83 24.9485C54.5834 23.3805 51.9726 22.9043 45.6449 22.9043L30.7799 22.766C25.3595 22.6775 25.3595 22.4154 25.3595 21.1565C25.3595 20.6947 25.3595 19.9212 28.4773 19.8227C28.4936 19.8227 31.4252 19.6157 31.4252 19.6157C33.7793 19.5245 59.5185 19.6157 59.5185 19.6157L59.5031 11.0604H22.3701L22.3249 11.064C14.8585 11.7011 11.9504 14.7629 11.9504 21.9861C11.9504 28.4295 14.9814 31.2219 22.4144 31.6205C23.8287 31.7108 25.3686 31.7578 27.0874 31.8057C28.077 31.8337 40.8878 31.9449 40.8878 31.9449C43.3558 31.9449 46.0416 31.9964 46.6543 32.6082C46.77 32.7248 46.9037 32.9579 46.9037 33.7378C46.9037 34.2286 46.7095 34.5973 46.3706 34.7491L46.357 34.7563L46.3435 34.7617C45.8545 34.9985 43.8556 35.3076 35.9663 35.3076H12.7728V43.7653H49.7269L49.7721 43.7617C57.299 43.1192 60.3689 40.0023 60.3689 33.0004C60.3689 29.3504 59.1787 26.6411 56.83 24.9485Z" fill="black"/>
<path fill-rule="evenodd" clip-rule="evenodd" d="M47.2444 36.6902C47.2435 36.6902 47.2426 36.6902 47.2417 36.692C47.2417 36.6911 47.2607 36.683 47.2444 36.6902ZM81.1214 35.1666C80.9569 35.1666 80.6659 35.1476 80.5548 35.0166C80.4228 34.8593 80.421 34.4888 80.4491 34.3243L80.468 34.224L80.4662 11.0595H67.0553V38.259C66.9442 38.7552 66.7571 40.1297 67.6581 41.4627C68.5916 42.8426 70.3466 43.655 72.8733 43.8773L72.9673 43.8828H105.906V35.1666H81.1214ZM100.402 11.0595V20.8375H115.465V43.8828H130.237V20.8375H145.245V11.0595H100.402Z" fill="black"/>
<path fill-rule="evenodd" clip-rule="evenodd" d="M56.2761 25.6994C54.2338 24.2734 51.754 23.8387 45.6603 23.8387L30.7836 23.7005C25.1762 23.6092 24.4008 23.2947 24.4008 21.1159C24.4008 19.5669 25.5774 18.8982 28.4629 18.8078L31.3954 18.6009C33.7704 18.5087 58.558 18.6009 58.558 18.6009L58.5471 11.9939H22.4326C18.8322 12.3003 16.4835 13.1624 15.0331 14.7068C13.5871 16.2458 12.9419 18.478 12.9419 21.9455C12.9419 27.8096 15.6168 30.2378 22.4832 30.6065C23.892 30.6969 25.422 30.7421 27.1318 30.79C28.1114 30.818 40.9051 30.9291 40.9051 30.9291C44.5569 30.9291 46.5577 31.0755 47.3611 31.8789C47.7361 32.2531 47.8961 32.7971 47.8961 33.6972C47.8961 34.5765 47.4822 35.2877 46.7873 35.5986C45.7688 36.0911 42.2353 36.2583 35.9835 36.2583H13.7652V42.7504H49.7062C53.3183 42.4432 55.7023 41.591 57.2078 40.0692C58.7107 38.5491 59.4111 36.2899 59.4111 32.9598C59.4101 29.5944 58.3853 27.2186 56.2761 25.6994Z" fill="white"/>
<path fill-rule="evenodd" clip-rule="evenodd" d="M49.6907 42.5742H13.9413V36.439C15.886 36.4851 33.088 36.439 35.9825 36.439C42.3491 36.439 45.8057 36.2691 46.8612 35.7594C47.6185 35.4205 48.0722 34.6488 48.0722 33.6981C48.0722 32.7474 47.8969 32.1663 47.4857 31.7533C46.6344 30.9029 44.6851 30.7529 40.905 30.7529C40.905 30.7529 28.1149 30.6418 27.1362 30.6156C25.4282 30.5677 23.9 30.5207 22.4939 30.4303C15.7478 30.0688 13.1189 27.6894 13.1189 21.9473C13.1189 15.3177 15.558 12.7594 22.4397 12.1729H58.3699L58.3807 18.4255C56.3871 18.4265 33.7242 18.3352 31.3881 18.4255L28.4556 18.6325C25.4499 18.7265 24.2227 19.4467 24.2227 21.1177C24.2227 23.4248 25.0812 23.7863 30.7808 23.8794L45.6593 24.0176C51.7096 24.0176 54.1659 24.4451 56.1721 25.8449C58.2298 27.3288 59.2311 29.6567 59.2311 32.9616C59.2329 39.376 56.6465 41.9814 49.6907 42.5742Z" fill="black"/>
<path fill-rule="evenodd" clip-rule="evenodd" d="M81.137 36.1019C80.5387 36.1019 80.0959 35.9311 79.8176 35.594C79.3377 35.013 79.5031 34.1183 79.5049 34.1093L79.5067 34.1002V11.9939H68.0469V38.3341C68.0089 38.466 67.6881 39.7005 68.4816 40.8753C69.2425 41.9995 70.7544 42.6682 72.9748 42.8643H104.947V36.101H81.137V36.1019Z" fill="white"/>
<path fill-rule="evenodd" clip-rule="evenodd" d="M68.6296 40.7795C67.8543 39.6336 68.2157 38.3847 68.2194 38.372L68.223 38.3594V12.1711H79.3285V34.0849C79.3114 34.1789 79.1632 35.0807 79.6792 35.707C79.9928 36.0866 80.4835 36.2809 81.1368 36.2809H104.77V42.6899H72.9828C70.8265 42.4983 69.3598 41.8558 68.6296 40.7795Z" fill="black"/>
<path fill-rule="evenodd" clip-rule="evenodd" d="M101.392 11.9939V19.8227H116.455V42.8661H129.279V19.8227H144.286V11.9939H101.392Z" fill="white"/>
<path fill-rule="evenodd" clip-rule="evenodd" d="M116.633 19.6455H101.57V12.1711H144.11V19.6455H129.102V42.689H116.633V19.6455Z" fill="black"/>
<path fill-rule="evenodd" clip-rule="evenodd" d="M49.6321 41.6389H14.9002V37.4611C19.1287 37.509 33.3574 37.4611 35.9673 37.4611C44.3103 37.4611 46.3671 37.1032 47.2446 36.6893C48.3471 36.1932 49.0321 35.0636 49.0321 33.7378C49.0321 32.9173 48.9327 31.8771 48.1591 31.1044C47.0584 30.0028 45.0269 29.8158 40.8889 29.8158C40.8889 29.8158 28.116 29.7064 27.1472 29.6784C25.4491 29.6323 23.93 29.5844 22.5401 29.4968C16.2892 29.1615 14.0779 27.195 14.0779 21.9852C14.0779 15.8789 16.1175 13.7362 22.4669 13.1859H57.3859V17.4893C52.5222 17.4974 33.5228 17.4044 31.3358 17.4893L28.3961 17.6962C26.9963 17.7405 23.2342 17.8589 23.2342 21.1556C23.2342 24.6231 25.5395 24.8075 30.7511 24.8915L45.6459 25.0298C51.4612 25.0298 53.7874 25.4157 55.6002 26.6826C57.3741 27.9605 58.2426 30.0308 58.2426 32.9995C58.2426 38.8979 56.0674 41.0813 49.6321 41.6389ZM69.4205 40.2707C68.918 39.5278 69.1349 38.7018 69.1376 38.6946L69.1828 38.5428V13.1868H78.3382V34.0523C78.2867 34.4282 78.2135 35.519 78.912 36.3667C79.2609 36.7905 79.9269 37.2948 81.1216 37.2948H103.779V41.7555H73.0199C71.2098 41.5892 69.9654 41.0759 69.4205 40.2707ZM128.11 41.7555H117.592V18.7111H102.529V13.1868H143.118V18.7111H128.11V41.7555Z" fill="white"/>
<path fill-rule="evenodd" clip-rule="evenodd" d="M4.69373 39.874V44.7702C4.69192 44.8217 4.663 46.274 5.80889 47.4632C6.74513 48.4356 8.16755 48.9354 10.0373 48.948H13.5789C13.6688 48.948 13.755 48.9123 13.8185 48.8488C13.8821 48.7852 13.9178 48.699 13.9178 48.6091C13.9178 48.5192 13.8821 48.433 13.8185 48.3695C13.755 48.3059 13.6688 48.2702 13.5789 48.2702H10.0391C8.36636 48.2576 7.10841 47.8328 6.30412 47.0033C5.35343 46.0236 5.36969 44.7919 5.3706 44.7792V39.874C5.36611 39.7872 5.3285 39.7055 5.26552 39.6457C5.20255 39.5859 5.11901 39.5526 5.03216 39.5526C4.94531 39.5526 4.86178 39.5859 4.7988 39.6457C4.73582 39.7055 4.69821 39.7872 4.69373 39.874ZM153.301 39.874V44.7702C153.303 44.8217 153.332 46.274 152.187 47.4632C151.25 48.4356 149.828 48.9354 147.958 48.948H144.416C144.326 48.948 144.24 48.9123 144.176 48.8488C144.112 48.7852 144.077 48.699 144.077 48.6091C144.077 48.5192 144.112 48.433 144.176 48.3695C144.24 48.3059 144.326 48.2702 144.416 48.2702H147.955C149.628 48.2576 150.884 47.8328 151.69 47.0033C152.641 46.0236 152.625 44.7919 152.625 44.7792V39.874C152.625 39.7843 152.661 39.6984 152.724 39.635C152.787 39.5716 152.873 39.536 152.963 39.536C153.053 39.536 153.138 39.5716 153.202 39.635C153.265 39.6984 153.301 39.7843 153.301 39.874Z" fill="black"/>
</svg>
